<svg xmlns="http://www.w3.org/2000/svg" width="40.691" height="46.505" viewBox="0 0 40.691 46.505">
  <g id="noun_Light_1570737" transform="translate(-8 -2)">
    <g id="Group_57" data-name="Group 57" transform="translate(8 2)">
      <path id="Path_300" data-name="Path 300" d="M28.346,954.362a.969.969,0,0,0-.969.969v3.875a.969.969,0,1,0,1.938,0v-3.875A.969.969,0,0,0,28.346,954.362Zm-13.7,5.677a.969.969,0,0,0-.681,1.65l2.74,2.74a.963.963,0,1,0,1.362-1.362l-2.74-2.74A.961.961,0,0,0,14.646,960.039Zm27.4,0a.961.961,0,0,0-.681.288l-2.74,2.74a.963.963,0,0,0,1.362,1.362l2.74-2.74a.969.969,0,0,0-.681-1.65Zm-13.7,3.043c-5.908,0-11.626,4.583-11.626,11.066,0,8.411,6.3,10.173,6.3,16.062H33.674c0-5.889,6.3-7.65,6.3-16.062C39.972,967.665,34.253,963.082,28.346,963.082Zm-2.982,2.937h.015q.038,0,.076,0a.969.969,0,0,1,.333,1.877,7.28,7.28,0,0,0-4.587,5.525.969.969,0,1,1-1.907-.348,9.174,9.174,0,0,1,5.8-6.979.966.966,0,0,1,.273-.076Zm-16.395,7.72a.969.969,0,1,0,0,1.938h3.875a.969.969,0,1,0,0-1.938Zm34.878,0a.969.969,0,1,0,0,1.938h3.875a.969.969,0,1,0,0-1.938Zm-20.83,18.408v1.938H33.674v-1.938Zm0,3.875a1.94,1.94,0,0,0,1.938,1.938h6.782a1.94,1.94,0,0,0,1.938-1.938Zm3.391,2.906a1.938,1.938,0,1,0,3.875,0Z" transform="translate(-8 -954.362)" fill="#efc20d"/>
    </g>
  </g>
</svg>
